#!OML:ASF F:\VICON\USERDATA\INSTALL\rory3\rory3.ASF
:FULLY-SPECIFIED
:DEGREES
2431
root 0.0870207 16.6235 -1.44707 0.1041 0.998115 -3.59816
lowerback 11.9603 0.381604 -1.78089
upperback 11.0066 0.368279 0.299991
thorax 4.87954 0.0571578 1.28395
lowerneck 3.12912 -7.47315 -21.5857
upperneck 4.08081 -11.9832 28.4472
head 3.83602 -6.1302 12.5884
rclavicle -7.7526e-015 3.57812e-015
rhumerus -3.95025 19.5251 -92.1892
rradius 138.28
rwrist 25.9843
rhand 23.8268 7.08723
rfingers 7.12502
rthumb 48.0819 -15.0873
lclavicle -7.7526e-015 3.57812e-015
lhumerus 5.3472 -14.3407 94.3756
lradius 138.162
lwrist -12.7128
lhand 22.4031 39.4127
lfingers 7.12502
lthumb 46.7668 62.1809
rfemur -16.7515 1.75734 21.6018
rtibia 38.9096
rfoot -23.4676 -6.02075
rtoes -21.0249
lfemur -21.1563 -5.67159 -13.5142
ltibia 44.3252
lfoot -22.2686 0.491964
ltoes -16.2534
2432
root 0.0918673 16.6237 -1.44633 0.101651 0.82724 -3.39299
lowerback 11.9086 0.431268 -1.95454
upperback 11.056 0.423645 0.223789
thorax 4.9601 0.0753341 1.29764
lowerneck 3.02405 -7.44884 -21.5989
upperneck 4.04791 -11.9166 28.3482
head 3.82112 -6.09076 12.5521
rclavicle -7.95139e-016 -4.37326e-015
rhumerus -3.76396 19.6967 -92.0718
rradius 138.245
rwrist 26.0174
rhand 23.4167 6.72487
rfingers 7.12502
rthumb 47.7037 -15.625
lclavicle -7.95139e-016 -4.37326e-015
lhumerus 5.21492 -14.1838 94.4477
lradius 138.189
lwrist -12.5759
lhand 22.2986 39.5984
lfingers 7.12502
lthumb 46.6701 62.4087
rfemur -16.7706 1.81969 21.3597
rtibia 38.9579
rfoot -23.4709 -5.96178
rtoes -21.0355
lfemur -21.0465 -5.65583 -13.7733
ltibia 44.25
lfoot -22.2942 0.740751
ltoes -16.6401
2433
root 0.095188 16.6251 -1.44732 0.0909685 0.629397 -3.25708
lowerback 12.0196 0.497724 -2.01915
upperback 11.0192 0.505374 0.119016
thorax 4.85738 0.117473 1.21712
lowerneck 2.9642 -7.43103 -21.5794
upperneck 4.06903 -11.8814 28.3082
head 3.82389 -6.06833 12.5335
rclavicle 3.57812e-015 8.34896e-015
rhumerus -3.67072 19.9324 -92.0584
rradius 138.224
rwrist 26.1602
rhand 22.5001 5.84739
rfingers 7.12502
rthumb 46.8566 -16.8818
lclavicle 3.57812e-015 8.34896e-015
lhumerus 4.95256 -14.0893 94.4787
lradius 138.246
lwrist -12.4873
lhand 22.1851 39.7086
lfingers 7.12502
lthumb 46.565 62.5641
rfemur -16.7979 1.92453 21.2041
rtibia 39.0111
rfoot -23.502 -5.94659
rtoes -21.22
lfemur -20.9296 -5.59105 -13.9423
ltibia 44.1872
lfoot -22.3158 0.93465
ltoes -17.1402
2434
root 0.0986181 16.6258 -1.44792 0.089775 0.407337 -3.19274
lowerback 12.1102 0.570339 -2.04261
upperback 10.9859 0.597182 0.0589108
thorax 4.76904 0.16522 1.15945
lowerneck 2.88125 -7.43109 -21.5837
upperneck 4.12499 -11.8767 28.2898
head 3.8523 -6.05892 12.5244
rclavicle 1.19271e-015 -7.95139e-016
rhumerus -3.51463 20.1114 -91.9905
rradius 138.174
rwrist 26.2249
rhand 22.3347 5.32905
rfingers 7.12502
rthumb 46.7035 -17.4667
lclavicle 1.19271e-015 -7.95139e-016
lhumerus 4.58011 -13.9938 94.5879
lradius 138.292
lwrist -12.5494
lhand 22.262 39.5749
lfingers 7.12502
lthumb 46.6362 62.3997
rfemur -16.8507 2.06249 21.1224
rtibia 39.068
rfoot -23.5634 -5.89863
rtoes -21.5486
lfemur -20.8352 -5.47563 -14.0299
ltibia 44.144
lfoot -22.3016 0.968565
ltoes -17.021
2435
root 0.102835 16.6248 -1.44848 0.0608073 0.235242 -3.13218
lowerback 12.1328 0.646515 -2.04628
upperback 11.0218 0.69798 0.000834056
thorax 4.7931 0.217142 1.0928
lowerneck 2.8342 -7.45342 -21.4973
upperneck 4.06559 -11.8899 28.3169
head 3.84447 -6.06198 12.5137
rclavicle -1.86858e-014 -3.18055e-015
rhumerus -3.2604 20.1586 -91.8989
rradius 138.12
rwrist 26.252
rhand 22.9962 5.16989
rfingers 7.12502
rthumb 47.3153 -17.3561
lclavicle -1.86858e-014 -3.18055e-015
lhumerus 4.24709 -14.048 94.6958
lradius 138.315
lwrist -12.6183
lhand 22.3204 39.4844
lfingers 7.12502
lthumb 46.6903 62.2859
rfemur -16.8679 2.13467 21.0487
rtibia 39.1232
rfoot -23.5922 -5.87699
rtoes -21.7663
lfemur -20.7429 -5.41549 -14.1176
ltibia 44.1125
lfoot -22.2589 0.993086
ltoes -16.7873
2436
root 0.10705 16.6239 -1.44928 0.0565353 0.098924 -3.06685
lowerback 12.121 0.719444 -2.03024
upperback 11.0491 0.797588 -0.0783475
thorax 4.82705 0.270698 0.993402
lowerneck 2.85598 -7.48431 -21.3434
upperneck 3.97574 -11.9204 28.3534
head 3.81637 -6.07801 12.4946
rclavicle 4.77083e-015 -1.31198e-014
rhumerus -3.04234 20.1397 -91.8612
rradius 138.082
rwrist 26.295
rhand 23.231 4.97923
rfingers 7.12502
rthumb 47.5323 -17.4489
lclavicle 4.77083e-015 -1.31198e-014
lhumerus 4.02306 -14.185 94.6952
lradius 138.304
lwrist -12.5783
lhand 22.2118 39.4985
lfingers 7.12502
lthumb 46.5897 62.3434
rfemur -16.8981 2.20523 20.9621
rtibia 39.1593
rfoot -23.6257 -5.74196
rtoes -21.5802
lfemur -20.6898 -5.40801 -14.2095
ltibia 44.0871
lfoot -22.3146 1.16567
ltoes -17.0713
2437
root 0.1105 16.6235 -1.44907 0.0873904 -0.0140862 -2.96261
lowerback 12.1291 0.795837 -2.04266
upperback 11.0151 0.898773 -0.172034
thorax 4.78358 0.325101 0.894075
lowerneck 3.01726 -7.52055 -21.2143
upperneck 3.8323 -11.976 28.4401
head 3.76008 -6.11832 12.5038
rclavicle -1.27222e-014 2.38542e-015
rhumerus -2.95651 20.0427 -91.8735
rradius 138.077
rwrist 26.3188
rhand 23.2186 4.85688
rfingers 7.12502
rthumb 47.5208 -17.5765
lclavicle -1.27222e-014 2.38542e-015
lhumerus 3.75778 -14.4046 94.7145
lradius 138.293
lwrist -12.5082
lhand 22.146 39.572
lfingers 7.12502
lthumb 46.5287 62.4431
rfemur -16.9473 2.28395 20.8318
rtibia 39.1919
rfoot -23.6793 -5.70224
rtoes -21.5835
lfemur -20.6791 -5.42681 -14.3433
ltibia 44.0641
lfoot -22.3703 1.34026
ltoes -17.1877
2438
root 0.113585 16.6249 -1.44967 0.118523 -0.0568241 -2.9302
lowerback 12.1579 0.840693 -1.95757
upperback 10.9609 0.965227 -0.262255
thorax 4.709 0.368673 0.746103
lowerneck 3.22203 -7.53959 -21.1099
upperneck 3.72846 -12.0301 28.6331
head 3.7162 -6.1609 12.5644
rclavicle 0 7.95139e-015
rhumerus -2.98743 19.8524 -91.9927
rradius 138.046
rwrist 26.3593
rhand 23.1662 5.03036
rfingers 7.12502
rthumb 47.4724 -17.4249
lclavicle 0 7.95139e-015
lhumerus 3.38913 -14.7183 94.7202
lradius 138.272
lwrist -12.538
lhand 22.1552 39.5146
lfingers 7.12502
lthumb 46.5373 62.382
rfemur -16.9824 2.32159 20.7823
rtibia 39.1972
rfoot -23.6386 -5.74541
rtoes -21.6717
lfemur -20.6844 -5.45528 -14.3937
ltibia 44.046
lfoot -22.3155 1.42941
ltoes -17.2774
2439
root 0.11543 16.6256 -1.45085 0.161557 -0.0407267 -2.93354
lowerback 12.0603 0.850435 -1.9844
upperback 10.9971 0.97921 -0.259749
thorax 4.80066 0.372839 0.764147
lowerneck 3.21169 -7.55408 -21.0406
upperneck 3.69258 -12.0533 28.7907
head 3.72212 -6.17178 12.6115
rclavicle 7.95139e-015 3.97569e-015
rhumerus -2.86436 19.7352 -91.9618
rradius 138.036
rwrist 26.3293
rhand 23.1116 5.12448
rfingers 7.12502
rthumb 47.4219 -17.3536
lclavicle 7.95139e-015 3.97569e-015
lhumerus 3.30405 -14.9431 94.7048
lradius 138.2
lwrist -12.5355
lhand 22.2689 39.5646
lfingers 7.12502
lthumb 46.6426 62.3867
rfemur -17.0435 2.30281 20.7801
rtibia 39.1929
rfoot -23.5854 -5.73896
rtoes -21.705
lfemur -20.7384 -5.46756 -14.3917
ltibia 44.0425
lfoot -22.2151 1.38592
ltoes -16.973
2440
root 0.117697 16.6267 -1.45232 0.195232 0.0339057 -2.97117
lowerback 11.9527 0.794938 -2.13547
upperback 11.0635 0.896025 -0.160663
thorax 4.93119 0.315495 0.960505
lowerneck 3.13637 -7.55404 -20.9609
upperneck 3.64777 -12.0291 28.7716
head 3.71005 -6.1544 12.5862
rclavicle -5.1684e-015 2.78299e-015
rhumerus -2.67271 19.8187 -91.8203
rradius 138.009
rwrist 26.2357
rhand 23.2278 5.5832
rfingers 7.12502
rthumb 47.5293 -16.8463
lclavicle -5.1684e-015 2.78299e-015
lhumerus 3.32501 -14.9585 94.7414
lradius 138.125
lwrist -12.5467
lhand 22.4525 39.4638
lfingers 7.12502
lthumb 46.8125 62.2122
rfemur -17.0769 2.25425 20.8154
rtibia 39.1632
rfoot -23.5831 -5.76261
rtoes -22.0607
lfemur -20.8112 -5.50879 -14.3523
ltibia 44.0611
lfoot -22.2758 1.35351
ltoes -16.9708
